# This file uses centimeters as units for non-parametric coordinates.

mtllib curve.mtl
g default
v 1.000000 1.000000 0.000000
v 1.000000 -1.000000 -0.000000
v -1.000000 -1.000000 0.000000
v -1.000000 1.000000 0.000000
v 0.173648 -1.000000 0.984808
v 0.173648 1.000000 0.984808
v 1.000000 0.200000 -0.000000
v 0.173648 0.200000 0.984808
v 0.766044 0.200000 0.642788
v 0.766044 1.000000 0.642788
v 0.939692 0.200000 0.342020
v 0.939692 1.000000 0.342020
v 1.000000 0.600000 -0.000000
v 0.939692 0.600000 0.342020
v 0.766044 0.600000 0.642788
v 0.500000 0.200000 0.866025
v 0.500000 1.000000 0.866025
v 0.500000 0.600000 0.866025
v 0.173648 0.600000 0.984808
v 0.766044 -1.000000 0.642788
v 1.000000 -0.200000 -0.000000
v 0.766044 -0.200000 0.642788
v 0.939692 -0.200000 0.342020
v 0.939692 -1.000000 0.342020
v 1.000000 -0.600000 -0.000000
v 0.939692 -0.600000 0.342020
v 0.766044 -0.600000 0.642788
v 0.173648 -0.200000 0.984808
v 0.500000 -0.200000 0.866025
v 0.500000 -1.000000 0.866025
v 0.500000 -0.600000 0.866025
v 0.173648 -0.600000 0.984808
v -0.500000 -1.000000 0.866025
v -0.500000 1.000000 0.866025
v -0.500000 0.200000 0.866025
v -0.173648 1.000000 0.984808
v -0.173648 0.200000 0.984808
v -0.173648 0.600000 0.984808
v -0.500000 0.600000 0.866025
v -0.500000 -0.200000 0.866025
v -0.173648 -0.200000 0.984808
v -0.173648 -1.000000 0.984808
v -0.173648 -0.600000 0.984808
v -0.500000 -0.600000 0.866025
v -1.000000 0.200000 0.000000
v -0.766044 1.000000 0.642788
v -0.766044 0.200000 0.642788
v -0.766044 0.600000 0.642788
v -0.939692 1.000000 0.342020
v -0.939692 0.200000 0.342020
v -0.939692 0.600000 0.342020
v -1.000000 0.600000 0.000000
v -0.766044 -1.000000 0.642788
v -0.766044 -0.200000 0.642788
v -0.766044 -0.600000 0.642788
v -1.000000 -0.200000 0.000000
v -0.939692 -0.200000 0.342020
v -0.939692 -1.000000 0.342020
v -0.939692 -0.600000 0.342020
v -1.000000 -0.600000 0.000000
vt 0.000000 1.000000
vt 0.000000 0.000000
vt 1.000000 0.000000
vt 1.000000 1.000000
vt 0.444444 0.000000
vt 0.444444 1.000000
vt 0.000000 0.600000
vt 0.444444 0.600000
vt 0.222222 0.600000
vt 0.222222 1.000000
vt 0.111111 0.600000
vt 0.111111 1.000000
vt 0.000000 0.800000
vt 0.111111 0.800000
vt 0.222222 0.800000
vt 0.333333 0.600000
vt 0.333333 1.000000
vt 0.333333 0.800000
vt 0.444444 0.800000
vt 0.222222 0.000000
vt 0.000000 0.400000
vt 0.222222 0.400000
vt 0.111111 0.400000
vt 0.111111 0.000000
vt 0.000000 0.200000
vt 0.111111 0.200000
vt 0.222222 0.200000
vt 0.444444 0.400000
vt 0.333333 0.400000
vt 0.333333 0.000000
vt 0.333333 0.200000
vt 0.444444 0.200000
vt 0.666667 0.000000
vt 0.666667 1.000000
vt 0.666667 0.600000
vt 0.555556 1.000000
vt 0.555556 0.600000
vt 0.555556 0.800000
vt 0.666667 0.800000
vt 0.666667 0.400000
vt 0.555556 0.400000
vt 0.555556 0.000000
vt 0.555556 0.200000
vt 0.666667 0.200000
vt 1.000000 0.600000
vt 0.777778 1.000000
vt 0.777778 0.600000
vt 0.777778 0.800000
vt 0.888889 1.000000
vt 0.888889 0.600000
vt 0.888889 0.800000
vt 1.000000 0.800000
vt 0.777778 0.000000
vt 0.777778 0.400000
vt 0.777778 0.200000
vt 1.000000 0.400000
vt 0.888889 0.400000
vt 0.888889 0.000000
vt 0.888889 0.200000
vt 1.000000 0.200000
vn 0.939693 0.000000 -0.342020
vn 0.984808 0.000000 -0.173649
vn 0.939693 0.000000 -0.342020
vn -0.500000 0.000000 -0.866025
vn -0.173648 0.000000 -0.984808
vn -0.500000 0.000000 -0.866025
vn -0.500000 0.000000 -0.866025
vn -0.173648 0.000000 -0.984808
vn -0.500000 0.000000 -0.866026
vn -0.939693 0.000000 -0.342020
vn -0.766044 0.000000 -0.642788
vn -0.939693 0.000000 -0.342020
vn -0.984808 0.000000 -0.173649
vn -0.984808 0.000000 -0.173649
vn -0.984808 0.000000 -0.173649
vn -0.939693 0.000000 -0.342020
vn -0.766044 0.000000 -0.642788
vn -0.766044 0.000000 -0.642788
vn -0.500000 0.000000 -0.866026
vn -0.173648 0.000000 -0.984808
vn -0.939693 0.000000 -0.342020
vn -0.766045 0.000000 -0.642788
vn -0.939693 0.000000 -0.342020
vn -0.939693 0.000000 -0.342020
vn -0.766044 0.000000 -0.642788
vn -0.984808 0.000000 -0.173649
vn -0.984808 0.000000 -0.173649
vn -0.984808 0.000000 -0.173649
vn -0.766044 0.000000 -0.642788
vn -0.500000 0.000000 -0.866026
vn -0.173648 0.000000 -0.984808
vn -0.173648 0.000000 -0.984808
vn 0.173648 0.000000 -0.984808
vn 0.500000 0.000000 -0.866026
vn 0.173648 0.000000 -0.984808
vn 0.173648 0.000000 -0.984808
vn 0.173648 0.000000 -0.984808
vn 0.500000 0.000000 -0.866026
vn -0.173648 0.000000 -0.984808
vn 0.173648 0.000000 -0.984808
vn 0.500000 0.000000 -0.866025
vn 0.173648 0.000000 -0.984808
vn 0.500000 0.000000 -0.866025
vn 0.500000 0.000000 -0.866026
vn 0.939693 0.000000 -0.342020
vn 0.939693 0.000000 -0.342020
vn 0.984808 0.000000 -0.173649
vn 0.766044 0.000000 -0.642788
vn 0.500000 0.000000 -0.866025
vn 0.766044 0.000000 -0.642788
vn 0.766045 0.000000 -0.642788
vn 0.939693 0.000000 -0.342020
vn 0.984808 0.000000 -0.173649
vn 0.766044 0.000000 -0.642788
vn 0.766044 0.000000 -0.642788
vn 0.766045 0.000000 -0.642788
vn 0.939693 0.000000 -0.342020
vn 0.984808 0.000000 -0.173649
vn 0.984808 0.000000 -0.173649
vn 0.984808 0.000000 -0.173649
s 1
g nurbsToPoly1
usemtl initialShadingGroup
f 58/58/1 3/3/2 59/59/3
f 30/30/4 5/5/5 31/31/6
f 16/16/7 8/8/8 18/18/9
f 11/11/10 9/9/11 14/14/12
f 13/13/13 7/7/14 11/11/10
f 1/1/15 13/13/13 14/14/12
f 12/12/16 14/14/12 15/15/17
f 9/9/11 16/16/7 15/15/17
f 10/10/18 15/15/17 18/18/9
f 17/17/19 18/18/9 19/19/20
f 24/24/21 20/20/22 26/26/23
f 23/23/24 22/22/25 11/11/10
f 7/7/14 21/21/26 23/23/24
f 25/25/27 2/2/28 24/24/21
f 21/21/26 25/25/27 26/26/23
f 23/23/24 26/26/23 27/27/29
f 16/16/7 29/29/30 28/28/31
f 9/9/11 22/22/25 29/29/30
f 20/20/22 30/30/4 27/27/29
f 22/22/25 27/27/29 31/31/6
f 29/29/30 31/31/6 32/32/32
f 42/42/33 33/33/34 43/43/35
f 38/38/36 37/37/37 35/35/38
f 19/19/20 8/8/8 37/37/37
f 6/6/39 19/19/20 38/38/36
f 36/36/40 38/38/36 39/39/41
f 37/37/37 41/41/42 40/40/43
f 8/8/8 28/28/31 41/41/42
f 5/5/5 42/42/33 32/32/32
f 28/28/31 32/32/32 43/43/35
f 41/41/42 43/43/35 44/44/44
f 51/51/45 50/50/46 45/45/47
f 39/39/41 35/35/38 47/47/48
f 34/34/49 39/39/41 48/48/50
f 48/48/50 47/47/48 50/50/46
f 46/46/51 48/48/50 51/51/45
f 49/49/52 51/51/45 52/52/53
f 33/33/34 53/53/54 44/44/44
f 35/35/38 40/40/43 54/54/55
f 40/40/43 44/44/44 55/55/56
f 50/50/46 57/57/57 56/56/58
f 47/47/48 54/54/55 57/57/57
f 53/53/54 58/58/1 55/55/56
f 54/54/55 55/55/56 59/59/3
f 57/57/57 59/59/3 60/60/59
f 3/3/2 60/60/59 59/59/3
f 5/5/5 32/32/32 31/31/6
f 8/8/8 19/19/20 18/18/9
f 9/9/11 15/15/17 14/14/12
f 11/11/10 14/14/12 13/13/13
f 14/14/12 12/12/16 1/1/15
f 15/15/17 10/10/18 12/12/16
f 16/16/7 18/18/9 15/15/17
f 18/18/9 17/17/19 10/10/18
f 19/19/20 6/6/39 17/17/19
f 20/20/22 27/27/29 26/26/23
f 22/22/25 9/9/11 11/11/10
f 23/23/24 11/11/10 7/7/14
f 24/24/21 26/26/23 25/25/27
f 26/26/23 23/23/24 21/21/26
f 27/27/29 22/22/25 23/23/24
f 28/28/31 8/8/8 16/16/7
f 29/29/30 16/16/7 9/9/11
f 30/30/4 31/31/6 27/27/29
f 31/31/6 29/29/30 22/22/25
f 32/32/32 28/28/31 29/29/30
f 33/33/34 44/44/44 43/43/35
f 35/35/38 39/39/41 38/38/36
f 37/37/37 38/38/36 19/19/20
f 38/38/36 36/36/40 6/6/39
f 39/39/41 34/34/49 36/36/40
f 40/40/43 35/35/38 37/37/37
f 41/41/42 37/37/37 8/8/8
f 42/42/33 43/43/35 32/32/32
f 43/43/35 41/41/42 28/28/31
f 44/44/44 40/40/43 41/41/42
f 45/45/47 52/52/53 51/51/45
f 47/47/48 48/48/50 39/39/41
f 48/48/50 46/46/51 34/34/49
f 50/50/46 51/51/45 48/48/50
f 51/51/45 49/49/52 46/46/51
f 52/52/53 4/4/60 49/49/52
f 53/53/54 55/55/56 44/44/44
f 54/54/55 47/47/48 35/35/38
f 55/55/56 54/54/55 40/40/43
f 56/56/58 45/45/47 50/50/46
f 57/57/57 50/50/46 47/47/48
f 58/58/1 59/59/3 55/55/56
f 59/59/3 57/57/57 54/54/55
f 60/60/59 56/56/58 57/57/57
